<svg
							width="50"
							height="51"
							viewBox="0 0 50 51"
							fill="none"
							xmlns="http://www.w3.org/2000/svg"
						>
							<path
								d="M49.5766 25.3654C49.5766 38.1759 40.3278 48.7664 28.3139 50.4855C27.1901 50.6462 26.0408 50.7294 24.8744 50.7294C23.5273 50.7294 22.2059 50.6184 20.9172 50.4052C9.15639 48.4612 0.172241 37.989 0.172241 25.364C0.172241 11.3558 11.2317 0 24.8744 0C38.517 0 49.5766 11.3558 49.5766 25.364V25.3654Z"
								fill="#5865F2"
							/>
							<path
								d="M36.3991 14.5091C34.2796 13.5101 32.0066 12.774 29.6297 12.3533C29.587 12.3446 29.5429 12.365 29.5216 12.4059C29.2285 12.9405 28.9056 13.6357 28.678 14.1834C26.1219 13.7905 23.5786 13.7905 21.0751 14.1834C20.8489 13.624 20.5132 12.939 20.2188 12.4059C20.196 12.3665 20.1534 12.346 20.1093 12.3533C17.7338 12.774 15.4607 13.5086 13.3399 14.5091C13.3214 14.5179 13.3057 14.531 13.2957 14.5485C8.98432 21.1634 7.80227 27.6146 8.38262 33.9856C8.38547 34.0163 8.40254 34.0469 8.4253 34.0659C11.2702 36.2115 14.0255 37.5128 16.7295 38.376C16.7722 38.3891 16.8191 38.3731 16.8462 38.3366C17.4863 37.4398 18.0567 36.4933 18.5446 35.4987C18.573 35.4403 18.5446 35.3716 18.4862 35.3483C17.5816 34.9963 16.721 34.5669 15.8917 34.0791C15.8263 34.0396 15.8206 33.9432 15.8818 33.8979C16.0567 33.7636 16.2303 33.6248 16.3967 33.4831C16.4266 33.4569 16.4692 33.4525 16.5048 33.4685C21.9485 36.0201 27.8402 36.0201 33.2199 33.4685C33.2555 33.451 33.2967 33.4569 33.328 33.4817C33.4945 33.6219 33.6694 33.7636 33.8444 33.8979C33.9041 33.9447 33.9013 34.0396 33.8358 34.0791C33.008 34.5756 32.146 34.9963 31.2399 35.3468C31.1815 35.3702 31.1545 35.4403 31.183 35.4987C31.6823 36.4919 32.2526 37.4383 32.8799 38.3351C32.9055 38.3731 32.9539 38.3891 32.9966 38.376C35.7135 37.5128 38.4701 36.21 41.315 34.0659C41.3406 34.0469 41.3563 34.0192 41.3577 33.987C42.0519 26.62 40.1956 20.2213 36.4403 14.55C36.4318 14.531 36.4161 14.5179 36.3976 14.5091H36.3991ZM19.3582 30.1063C17.7195 30.1063 16.3696 28.5611 16.3696 26.6638C16.3696 24.7666 17.6939 23.2213 19.3582 23.2213C21.0225 23.2213 22.3738 24.7797 22.3468 26.6638C22.3468 28.5611 21.0225 30.1063 19.3582 30.1063ZM30.4092 30.1063C28.7705 30.1063 27.4206 28.5611 27.4206 26.6638C27.4206 24.7666 28.7449 23.2213 30.4092 23.2213C32.0734 23.2213 33.4248 24.7797 33.3977 26.6638C33.3977 28.5611 32.0862 30.1063 30.4092 30.1063Z"
								fill="white"
							/>
						</svg>