<svg
							width="50"
							height="51"
							viewBox="0 0 50 51"
							fill="none"
							xmlns="http://www.w3.org/2000/svg">
							<path
								d="M49.4043 25.3654C49.4043 38.176 40.1556 48.7664 28.1416 50.4855C27.0179 50.6462 25.8686 50.7294 24.7021 50.7294C23.3551 50.7294 22.0337 50.6184 20.7449 50.4052C8.98416 48.4612 0 37.989 0 25.364C0 11.3558 11.0595 0 24.7021 0C38.3448 0 49.4043 11.3558 49.4043 25.364V25.3654Z"
								fill="url(#paint0_linear_3613_1699)"
							/>
							<path
								d="M32.4389 10.1392H16.967C12.6925 10.1392 9.21606 13.7088 9.21606 18.0977V32.6317C9.21606 37.0206 12.6925 40.5902 16.967 40.5902H32.4389C36.7133 40.5902 40.1898 37.0206 40.1898 32.6317V18.0977C40.1898 13.7088 36.7133 10.1392 32.4389 10.1392ZM11.95 18.0977C11.95 15.2569 14.2003 12.9463 16.967 12.9463H32.4389C35.2055 12.9463 37.4558 15.2569 37.4558 18.0977V32.6317C37.4558 35.4725 35.2055 37.7831 32.4389 37.7831H16.967C14.2003 37.7831 11.95 35.4725 11.95 32.6317V18.0977Z"
								fill="white"
							/>
							<path
								d="M24.7022 32.769C28.6779 32.769 31.9125 29.4477 31.9125 25.3655C31.9125 21.2832 28.6779 17.9619 24.7022 17.9619C20.7264 17.9619 17.4918 21.2832 17.4918 25.3655C17.4918 29.4477 20.7264 32.769 24.7022 32.769ZM24.7022 20.7706C27.1701 20.7706 29.1772 22.8314 29.1772 25.3655C29.1772 27.8995 27.1701 29.9604 24.7022 29.9604C22.2342 29.9604 20.2272 27.8995 20.2272 25.3655C20.2272 22.8314 22.2342 20.7706 24.7022 20.7706Z"
								fill="white"
							/>
							<path
								d="M32.5811 19.1567C33.6522 19.1567 34.5242 18.2614 34.5242 17.1616C34.5242 16.0618 33.6522 15.1665 32.5811 15.1665C31.51 15.1665 30.6381 16.0618 30.6381 17.1616C30.6381 18.2614 31.51 19.1567 32.5811 19.1567Z"
								fill="white"
							/>
							<defs>
								<linearGradient
									id="paint0_linear_3613_1699"
									x1="7.23455"
									y1="43.301"
									x2="43.0932"
									y2="8.37804"
									gradientUnits="userSpaceOnUse">
									<stop stop-color="#FAAD4F" />
									<stop offset="0.35" stop-color="#DD2A7B" />
									<stop offset="0.62" stop-color="#9537B0" />
									<stop offset="1" stop-color="#515BD4" />
								</linearGradient>
							</defs>
						</svg>