<svg
							width="50"
							height="51"
							viewBox="0 0 50 51"
							fill="none"
							xmlns="http://www.w3.org/2000/svg">
							<path
								d="M49.5765 25.3654C49.5765 38.176 40.3278 48.7664 28.3139 50.4855C27.1901 50.6462 26.0408 50.7294 24.8744 50.7294C23.5273 50.7294 22.2059 50.6184 20.9172 50.4052C9.15639 48.4612 0.172241 37.989 0.172241 25.364C0.172241 11.3558 11.2317 0 24.8744 0C38.517 0 49.5765 11.3558 49.5765 25.364V25.3654Z"
								fill="#007EBB"
							/>
							<path
								d="M12.1919 16.7994C11.5333 16.1713 11.2047 15.3943 11.2047 14.4698C11.2047 13.5453 11.5333 12.7332 12.1919 12.1051C12.8505 11.4771 13.6983 11.1631 14.7381 11.1631C15.7779 11.1631 16.5915 11.4771 17.2487 12.1051C17.9073 12.7332 18.2359 13.5219 18.2359 14.4698C18.2359 15.4177 17.9073 16.1713 17.2487 16.7994C16.5901 17.4274 15.7537 17.7414 14.7381 17.7414C13.7224 17.7414 12.8505 17.4274 12.1919 16.7994ZM17.6811 20.4011V39.6468H11.7595V20.4011H17.6811Z"
								fill="#FEFFFC"
							/>
							<path
								d="M37.3976 22.3013C38.6878 23.7399 39.3336 25.7161 39.3336 28.2311V39.308H33.7078V29.0125C33.7078 27.7448 33.3877 26.7589 32.7476 26.0564C32.1075 25.3538 31.247 25.0033 30.1659 25.0033C29.0849 25.0033 28.2243 25.3553 27.5842 26.0564C26.9441 26.7589 26.624 27.7448 26.624 29.0125V39.308H20.9655V20.3485H26.624V22.8636C27.1973 22.0252 27.9697 21.3636 28.9412 20.8758C29.9113 20.3894 31.0037 20.1455 32.2171 20.1455C34.3792 20.1455 36.106 20.8655 37.3962 22.3027L37.3976 22.3013Z"
								fill="#FEFFFC"
							/>
						</svg>