<svg
							width="50"
							height="51"
							viewBox="0 0 50 51"
							fill="none"
							xmlns="http://www.w3.org/2000/svg">
							<path
								d="M49.4043 25.3654C49.4043 38.176 40.1556 48.7664 28.1416 50.4855C27.0179 50.6462 25.8686 50.7294 24.7021 50.7294C23.3551 50.7294 22.0337 50.6184 20.7449 50.4052C8.98416 48.4612 0 37.989 0 25.364C0 11.3558 11.0595 0 24.7021 0C38.3448 0 49.4043 11.3558 49.4043 25.364V25.3654Z"
								fill="#FF4500"
							/>
							<path
								d="M40.1941 24.7212C39.7787 22.7889 38.059 21.5343 36.352 21.9214C35.7717 22.0528 35.2695 22.361 34.8727 22.7816C32.5769 21.0684 29.4404 19.9379 25.9383 19.7232L27.6154 12.5563L32.5882 13.7788C32.6707 15.1751 33.7973 16.2807 35.1771 16.2807C36.5569 16.2807 37.7745 15.0874 37.7745 13.6137C37.7745 12.1401 36.6123 10.9468 35.1771 10.9468C34.1373 10.9468 33.244 11.5748 32.8286 12.4804L27.4333 11.1542C27.0094 11.0505 26.5827 11.3177 26.4803 11.7544L24.624 19.6853C20.718 19.7057 17.1931 20.8669 14.6626 22.7247C14.5389 22.6064 14.4051 22.4954 14.2586 22.4004C12.785 21.435 10.7495 22.0046 9.71251 23.6726C8.67555 25.3405 9.02832 27.4758 10.502 28.4427C10.5887 28.4997 10.6784 28.5508 10.7694 28.5976C10.7111 28.97 10.6769 29.3483 10.6769 29.7339C10.6769 35.284 16.9684 39.7825 24.7278 39.7825C32.4873 39.7825 38.7787 35.284 38.7787 29.7339C38.7787 29.3454 38.7446 28.9627 38.6848 28.5859C39.8811 27.8717 40.534 26.3162 40.1912 24.7227L40.1941 24.7212ZM17.5288 27.4057C17.5288 26.1409 18.5274 25.1171 19.7578 25.1171C20.9882 25.1171 21.9868 26.1424 21.9868 27.4057C21.9868 28.6691 20.9882 29.6944 19.7578 29.6944C18.5274 29.6944 17.5288 28.6691 17.5288 27.4057ZM29.9141 34.634C29.2299 35.2737 27.338 36.7621 24.5671 36.7883C24.5415 36.7883 24.5173 36.7883 24.4917 36.7883C21.6852 36.7883 19.7678 35.284 19.0693 34.6326C18.846 34.4237 18.8289 34.0688 19.0324 33.838C19.2358 33.6087 19.5814 33.5912 19.8062 33.8001C20.415 34.3682 22.0935 35.6871 24.5571 35.6623C26.9511 35.6389 28.5855 34.3521 29.1786 33.8001C29.402 33.5912 29.7491 33.6087 29.9525 33.838C30.1559 34.0673 30.1388 34.4237 29.9155 34.6326L29.9141 34.634ZM29.6452 29.6944C28.4134 29.6944 27.4162 28.6691 27.4162 27.4057C27.4162 26.1424 28.4148 25.1171 29.6452 25.1171C30.8756 25.1171 31.8742 26.1424 31.8742 27.4057C31.8742 28.6691 30.8756 29.6944 29.6452 29.6944Z"
								fill="white"
							/>
						</svg>