<svg
							width="50"
							height="51"
							viewBox="0 0 50 51"
							fill="none"
							xmlns="http://www.w3.org/2000/svg">
							<path
								d="M49.4043 25.3654C49.4043 38.176 40.1556 48.7664 28.1416 50.4855C27.0179 50.6462 25.8686 50.7294 24.7022 50.7294C23.3551 50.7294 22.0336 50.6184 20.7449 50.4052C8.98415 48.4612 0 37.989 0 25.364C0 11.3558 11.0595 0 24.7022 0C38.3448 0 49.4043 11.3558 49.4043 25.364V25.3654Z"
								fill="black"
							/>
							<path
								d="M37.379 20.084V24.9301C36.5526 24.8483 35.4829 24.6555 34.2952 24.2086C32.7461 23.6258 31.5925 22.8284 30.8386 22.2106V32.008L30.8201 31.9773C30.8329 32.1715 30.8386 32.3687 30.8386 32.5688C30.8386 37.4354 26.9838 41.3949 22.2428 41.3949C17.5018 41.3949 13.647 37.4339 13.647 32.5688C13.647 27.7037 17.5018 23.7412 22.2428 23.7412C22.7065 23.7412 23.1617 23.7792 23.6069 23.8522V28.6297C23.1788 28.472 22.7207 28.3872 22.2428 28.3872C19.9982 28.3872 18.1703 30.2626 18.1703 32.5688C18.1703 34.875 19.9982 36.7504 22.2428 36.7504C24.4874 36.7504 26.3152 34.8736 26.3152 32.5688C26.3152 32.4826 26.3138 32.3965 26.3081 32.3103V13.2705H31.0264C31.0434 13.6809 31.0605 14.0943 31.0762 14.5047C31.1075 15.3124 31.3877 16.0879 31.8756 16.7233C32.4488 17.4696 33.2938 18.3372 34.4829 19.0295C35.5953 19.6765 36.6393 19.954 37.379 20.0855V20.084Z"
								fill="#FF004F"
							/>
							<path
								d="M35.7574 16.1494V20.9955C34.931 20.9137 33.8613 20.721 32.6736 20.274C31.1245 19.6913 29.9709 18.8938 29.217 18.276V28.0734L29.1985 28.0427C29.2114 28.237 29.217 28.4341 29.217 28.6342C29.217 33.5008 25.3622 37.4604 20.6212 37.4604C15.8802 37.4604 12.0254 33.4993 12.0254 28.6342C12.0254 23.7691 15.8802 19.8066 20.6212 19.8066C21.0849 19.8066 21.5401 19.8446 21.9853 19.9177V24.6951C21.5572 24.5374 21.0991 24.4527 20.6212 24.4527C18.3766 24.4527 16.5488 26.328 16.5488 28.6342C16.5488 30.9404 18.3766 32.8158 20.6212 32.8158C22.8658 32.8158 24.6937 30.939 24.6937 28.6342C24.6937 28.5481 24.6923 28.4619 24.6866 28.3757V9.33594H29.4048C29.4219 9.74635 29.4389 10.1597 29.4546 10.5701C29.4859 11.3778 29.7661 12.1533 30.254 12.7887C30.8273 13.535 31.6722 14.4026 32.8613 15.0949C33.9737 15.7419 35.0178 16.0194 35.7574 16.1509V16.1494Z"
								fill="#00F7EF"
							/>
							<path
								d="M36.7901 18.2671V23.1132C35.9637 23.0314 34.894 22.8386 33.7063 22.3917C32.1572 21.8089 31.0037 21.0115 30.2498 20.3937V30.1911L30.2313 30.1604C30.2441 30.3546 30.2498 30.5518 30.2498 30.7519C30.2498 35.6185 26.3949 39.578 21.6539 39.578C16.9129 39.578 13.0581 35.617 13.0581 30.7519C13.0581 25.8868 16.9129 21.9243 21.6539 21.9243C22.1176 21.9243 22.5728 21.9623 23.018 22.0353V26.8128C22.5899 26.6551 22.1319 26.5703 21.6539 26.5703C19.4093 26.5703 17.5815 28.4457 17.5815 30.7519C17.5815 33.0581 19.4093 34.9335 21.6539 34.9335C23.8985 34.9335 25.7264 33.0567 25.7264 30.7519C25.7264 30.6657 25.725 30.5796 25.7193 30.4934V11.4536H30.4375C30.4546 11.864 30.4716 12.2774 30.4873 12.6878C30.5186 13.4955 30.7988 14.271 31.2867 14.9064C31.86 15.6527 32.7049 16.5203 33.8941 17.2126C35.0064 17.8596 36.0505 18.1371 36.7901 18.2686V18.2671Z"
								fill="white"
							/>
						</svg>