<svg
							width="50"
							height="52"
							viewBox="0 0 50 52"
							fill="none"
							xmlns="http://www.w3.org/2000/svg">
							<path
								d="M50 25.6713C50 38.6363 40.6398 49.3544 28.4809 51.0942C27.3437 51.2568 26.1805 51.3411 25 51.3411C23.6367 51.3411 22.2993 51.2287 20.995 51.0129C9.09247 49.0455 0 38.447 0 25.6698C0 11.4927 11.1928 0 25 0C38.8071 0 50 11.4927 50 25.6698V25.6713Z"
								fill="blue"
							/>
							<path
								d="M39.7761 16.2671C39.0822 16.987 38.1205 17.4319 37.0552 17.4319C36.9199 17.4319 36.7846 17.4245 36.6536 17.4098C37.765 16.7254 38.6229 15.6537 39.0505 14.3751C39.0505 14.3751 39.0519 14.3751 39.0519 14.3736C39.111 14.2021 39.1614 14.0292 39.2017 13.8503C38.3221 14.8156 37.12 15.4689 35.7711 15.6241C35.5638 15.6493 35.3536 15.6611 35.1406 15.6611C35.0729 15.6611 35.0081 15.6596 34.9433 15.6552C34.487 15.163 33.9428 14.7565 33.3396 14.4579C32.6674 14.1208 31.9159 13.9228 31.1227 13.8976C31.0579 13.8932 30.9931 13.8917 30.9254 13.8917C30.2532 13.8917 29.6082 14.0144 29.0122 14.2406C28.8596 14.2982 28.7113 14.3603 28.5659 14.4327C26.6772 15.3418 25.37 17.3122 25.37 19.596C25.37 20.0645 25.4262 20.5198 25.5284 20.9544C24.9497 20.9307 24.3767 20.8731 23.8153 20.7874C23.6353 20.7578 23.4554 20.7268 23.2769 20.6913C21.8445 20.4178 20.4783 19.9478 19.2086 19.3092C18.0727 18.7386 17.0132 18.035 16.0501 17.2161C15.2396 16.5303 14.4982 15.7646 13.836 14.9279C13.8072 14.8924 13.7784 14.8555 13.7511 14.82C13.7122 14.8806 13.6762 14.9412 13.6446 15.0048C13.181 15.837 12.919 16.7993 12.919 17.8251C12.919 17.8562 12.919 17.8902 12.9204 17.9212C12.9319 18.6898 13.0903 19.4215 13.3739 20.0867C13.4948 20.3823 13.6417 20.6617 13.8101 20.9263C14.3068 21.7112 14.9848 22.3646 15.7852 22.8169C15.8212 22.8405 15.8586 22.8597 15.8961 22.8775C15.8385 22.8893 15.7795 22.8997 15.7204 22.9056C15.5563 22.9277 15.3864 22.9396 15.2166 22.9396C14.3643 22.9396 13.5711 22.6661 12.9219 22.2005C12.9176 22.2493 12.9175 22.2995 12.9175 22.3498C12.9175 23.9787 13.5826 25.448 14.6479 26.4842C15.4771 27.2972 16.5496 27.8426 17.7416 28.0023C17.3126 28.1634 16.8491 28.2506 16.3668 28.2506C15.8443 28.2506 15.3433 28.1486 14.8855 27.9609C15.5678 30.2387 17.602 31.9091 20.0263 31.983C18.5449 33.5631 16.4647 34.5446 14.1628 34.5446C12.7318 34.5446 11.3873 34.1647 10.2212 33.4996C13.0241 35.9903 16.6792 37.4951 20.677 37.4951C29.5118 37.4951 36.6723 30.1427 36.6723 21.0712C36.6723 20.5716 36.6507 20.0778 36.6075 19.5901C38.0687 18.9973 39.2276 17.7867 39.7761 16.2686V16.2671Z"
								fill="white"
							/>
						</svg>