<svg width="50" height="52" viewBox="0 0 50 52" fill="none" xmlns="http://www.w3.org/2000/svg">
<path d="M50 25.6713C50 38.6363 40.6398 49.3544 28.4809 51.0942C27.3437 51.2568 26.1805 51.3411 25 51.3411C23.6367 51.3411 22.2993 51.2287 20.995 51.0129C9.09247 49.0455 0 38.447 0 25.6698C0 11.4927 11.1928 0 25 0C38.8071 0 50 11.4927 50 25.6698V25.6713Z" fill="white"/>
<path d="M39.7761 16.267C39.0822 16.9869 38.1205 17.4318 37.0552 17.4318C36.9199 17.4318 36.7846 17.4245 36.6536 17.4097C37.765 16.7253 38.623 15.6536 39.0505 14.375C39.0505 14.375 39.052 14.375 39.052 14.3735C39.111 14.2021 39.1614 14.0291 39.2017 13.8503C38.3221 14.8155 37.12 15.4688 35.7711 15.624C35.5638 15.6492 35.3537 15.661 35.1406 15.661C35.073 15.661 35.0082 15.6595 34.9434 15.6551C34.487 15.1629 33.9429 14.7564 33.3397 14.4578C32.6674 14.1208 31.9159 13.9227 31.1227 13.8976C31.0579 13.8931 30.9931 13.8916 30.9255 13.8916C30.2532 13.8916 29.6082 14.0143 29.0122 14.2405C28.8597 14.2981 28.7114 14.3602 28.566 14.4326C26.6772 15.3417 25.3701 17.3121 25.3701 19.5959C25.3701 20.0645 25.4262 20.5197 25.5284 20.9543C24.9497 20.9307 24.3768 20.873 23.8153 20.7873C23.6354 20.7577 23.4554 20.7267 23.2769 20.6912C21.8445 20.4177 20.4783 19.9477 19.2086 19.3091C18.0728 18.7385 17.0132 18.0349 16.0501 17.216C15.2396 16.5302 14.4983 15.7645 13.836 14.9278C13.8072 14.8924 13.7785 14.8554 13.7511 14.8199C13.7122 14.8805 13.6763 14.9411 13.6446 15.0047C13.181 15.8369 12.919 16.7992 12.919 17.825C12.919 17.8561 12.919 17.8901 12.9205 17.9211C12.932 18.6898 13.0903 19.4214 13.3739 20.0866C13.4949 20.3823 13.6417 20.6616 13.8101 20.9262C14.3068 21.7111 14.9848 22.3645 15.7853 22.8168C15.8212 22.8404 15.8587 22.8597 15.8961 22.8774C15.8385 22.8892 15.7795 22.8996 15.7205 22.9055C15.5564 22.9277 15.3865 22.9395 15.2166 22.9395C14.3644 22.9395 13.5712 22.666 12.9219 22.2004C12.9176 22.2492 12.9176 22.2994 12.9176 22.3497C12.9176 23.9786 13.5827 25.4479 14.648 26.4841C15.4772 27.2971 16.5497 27.8425 17.7417 28.0022C17.3127 28.1633 16.8491 28.2505 16.3669 28.2505C15.8443 28.2505 15.3433 28.1485 14.8855 27.9608C15.5679 30.2387 17.602 31.909 20.0263 31.9829C18.545 33.563 16.4647 34.5445 14.1628 34.5445C12.7319 34.5445 11.3873 34.1647 10.2212 33.4995C13.0241 35.9902 16.6792 37.495 20.677 37.495C29.5118 37.495 36.6723 30.1426 36.6723 21.0711C36.6723 20.5715 36.6507 20.0778 36.6075 19.59C38.0687 18.9972 39.2276 17.7866 39.7761 16.2685V16.267Z" fill="white"/>
<path d="M32.9079 13.8003H37.1247L27.9121 24.6806L38.75 39.4863H30.264L23.6175 30.5067L16.0124 39.4863H11.793L21.6468 27.8486L11.25 13.8003H19.9514L25.9592 22.008L32.9079 13.8003ZM31.4279 36.8782H33.7645L18.6817 16.2714H16.1743L31.4279 36.8782Z" fill="black"/>
</svg>
