<svg width="24" height="25" viewBox="0 0 24 25" fill="none" xmlns="http://www.w3.org/2000/svg">
<path d="M23.5313 12.0244C23.4966 11.9453 22.6753 10.0459 20.8613 8.15625C18.4341 5.63184 15.375 4.29688 12 4.29688C8.625 4.29688 5.56594 5.63184 3.14156 8.15625C1.3275 10.0459 0.506252 11.9453 0.468752 12.0244C0.405239 12.1744 0.372437 12.3365 0.372437 12.5005C0.372437 12.6644 0.405239 12.8266 0.468752 12.9766C0.503439 13.0566 1.32469 14.9551 3.13969 16.8447C5.56594 19.3691 8.625 20.7031 12 20.7031C15.375 20.7031 18.4341 19.3691 20.8575 16.8447C22.6725 14.9551 23.4938 13.0566 23.5284 12.9766C23.5924 12.8268 23.6257 12.6647 23.6262 12.5008C23.6266 12.3369 23.5943 12.1746 23.5313 12.0244ZM19.2131 15.2471C17.2003 17.3115 14.7741 18.3594 12 18.3594C9.22594 18.3594 6.79969 17.3115 4.78969 15.2461C3.99876 14.4309 3.31841 13.507 2.7675 12.5C3.31857 11.4934 3.99891 10.5699 4.78969 9.75488C6.80063 7.68848 9.22594 6.64062 12 6.64062C14.7741 6.64062 17.1994 7.68848 19.2103 9.75488C20.0012 10.5698 20.6815 11.4934 21.2325 12.5C20.6815 13.5069 20.0012 14.4308 19.2103 15.2461L19.2131 15.2471ZM12 8.20312C11.1842 8.20312 10.3866 8.45513 9.70827 8.92728C9.02992 9.39943 8.50121 10.0705 8.189 10.8557C7.87679 11.6408 7.7951 12.5048 7.95426 13.3383C8.11343 14.1718 8.5063 14.9374 9.08319 15.5384C9.66008 16.1393 10.3951 16.5485 11.1953 16.7143C11.9954 16.8801 12.8248 16.795 13.5786 16.4698C14.3323 16.1446 14.9766 15.5938 15.4298 14.8872C15.8831 14.1806 16.125 13.3498 16.125 12.5C16.1238 11.3608 15.6888 10.2686 14.9154 9.46308C14.1421 8.65754 13.0936 8.20442 12 8.20312ZM12 14.4531C11.6292 14.4531 11.2667 14.3386 10.9583 14.124C10.65 13.9094 10.4096 13.6043 10.2677 13.2474C10.1258 12.8905 10.0887 12.4978 10.161 12.119C10.2334 11.7401 10.412 11.3921 10.6742 11.1189C10.9364 10.8458 11.2705 10.6598 11.6342 10.5844C11.9979 10.509 12.3749 10.5477 12.7175 10.6955C13.0601 10.8434 13.353 11.0937 13.559 11.4149C13.765 11.7361 13.875 12.1137 13.875 12.5C13.875 13.018 13.6775 13.5148 13.3258 13.8811C12.9742 14.2473 12.4973 14.4531 12 14.4531Z" fill="#9CA3AF"/>
</svg>
